<?xml version="1.0" encoding="UTF-8" standalone="no"?>
<svg
   xmlns:dc="http://purl.org/dc/elements/1.1/"
   xmlns:cc="http://creativecommons.org/ns#"
   xmlns:rdf="http://www.w3.org/1999/02/22-rdf-syntax-ns#"
   xmlns:svg="http://www.w3.org/2000/svg"
   xmlns="http://www.w3.org/2000/svg"
   xmlns:sodipodi="http://sodipodi.sourceforge.net/DTD/sodipodi-0.dtd"
   xmlns:inkscape="http://www.inkscape.org/namespaces/inkscape"
   id="svg8"
   version="1.1"
   viewBox="0 0 133.31744 132.80998"
   height="132.80998mm"
   width="133.31744mm"
   sodipodi:docname="business.svg"
   inkscape:version="0.92.1 r15371">
  <sodipodi:namedview
     pagecolor="#ffffff"
     bordercolor="#666666"
     borderopacity="1"
     objecttolerance="10"
     gridtolerance="10"
     guidetolerance="10"
     inkscape:pageopacity="0"
     inkscape:pageshadow="2"
     inkscape:window-width="1920"
     inkscape:window-height="1001"
     id="namedview4868"
     showgrid="false"
     inkscape:zoom="0.2102413"
     inkscape:cx="-599.24604"
     inkscape:cy="97.655129"
     inkscape:window-x="-9"
     inkscape:window-y="-9"
     inkscape:window-maximized="1"
     inkscape:current-layer="svg8" />
  <defs
     id="defs2" />
  <metadata
     id="metadata5">
    <rdf:RDF>
      <cc:Work
         rdf:about="">
        <dc:format>image/svg+xml</dc:format>
        <dc:type
           rdf:resource="http://purl.org/dc/dcmitype/StillImage" />
        <dc:title />
      </cc:Work>
    </rdf:RDF>
  </metadata>
  <g
     id="layer1"
     transform="translate(-38.912804,-41.527942)" />
  <g
     id="layer2"
     transform="translate(-38.912804,-41.527942)">
    <g
       transform="translate(132.03115,-38.486812)"
       id="g4531">
      <path
         style="fill:#faae31;fill-opacity:1;stroke-width:0.99999994"
         d="m -76.988281,302.46875 -5.919922,50.04687 A 201.41423,201.13036 0 0 1 26.695312,396.62305 L 59.996094,358.91406 A 251.93897,251.58389 0 0 0 -76.988281,302.46875 Z m -212.189449,318.85742 -47.375,17.13477 a 251.93897,251.58389 0 0 0 236.54882,165.91601 251.93897,251.58389 0 0 0 43.996098,-4.10156 l -8.064454,-49.6582 a 201.41423,201.13036 0 0 1 -35.931644,3.30664 201.41423,201.13036 0 0 1 -189.17382,-132.59766 z"
         id="path4515"
         transform="scale(0.26458333)"
         inkscape:connector-curvature="0" />
      <path
         style="fill:#1e2942;fill-opacity:1;stroke-width:0.99999994"
         d="m -124.20117,302.41797 a 251.93897,251.58389 0 0 0 -227.74219,250.375 251.93897,251.58389 0 0 0 3.89063,42.50586 l 49.96093,-6.55664 a 201.41423,201.13036 0 0 1 -3.32617,-35.94922 201.41423,201.13036 0 0 1 182.97266,-200.11914 z M 93.652344,392.20508 51.470703,420.69141 A 201.41423,201.13036 0 0 1 101.41016,552.79297 201.41423,201.13036 0 0 1 -30.59375,741.43945 l 15.623047,47.84375 A 251.93897,251.58389 0 0 0 151.93359,552.79297 251.93897,251.58389 0 0 0 93.652344,392.20508 Z"
         transform="scale(0.26458333)"
         id="path3692"
         inkscape:connector-curvature="0" />
    </g>
  </g>
  <g
     style="display:inline"
     id="layer7"
     transform="translate(-38.912804,-41.527942)">
    <rect
       transform="rotate(60)"
       ry="9.6314907"
       y="-74.941895"
       x="120.29565"
       height="60.55793"
       width="31.78845"
       id="rect4671-4"
       style="display:inline;opacity:1;fill:none;fill-opacity:1;stroke:#1e2942;stroke-width:3;stroke-miterlimit:4;stroke-dasharray:none;stroke-opacity:1" />
    <text
       transform="rotate(-30)"
       id="text4771"
       y="145.433"
       x="37.058361"
       style="font-style:normal;font-weight:normal;font-size:15.00507164px;line-height:1.25;font-family:sans-serif;letter-spacing:0px;word-spacing:0px;fill:#faae31;fill-opacity:1;stroke:none;stroke-width:0.37512678"
       xml:space="preserve"><tspan
         id="tspan4773"
         style="font-style:normal;font-variant:normal;font-weight:normal;font-stretch:normal;font-size:28.00946808px;line-height:164.44999695;font-family:'Titillium Web';-inkscape-font-specification:'Titillium Web';fill:#faae31;fill-opacity:1;stroke-width:0.37512678"
         y="145.433"
         x="37.058361">€</tspan></text>
    <path
       id="rect4814"
       transform="scale(0.26458333)"
       d="m 515.78711,358.67969 c -3.06646,6.35272 -8.01555,11.88724 -14.61133,15.69531 L 366.00977,452.41406 C 348.54465,462.49755 326.36669,456.553 316.2832,439.08789 L 292.61328,398.0918 c -0.89243,-1.54573 -1.65434,-3.13037 -2.29883,-4.73828 -5.05328,10.46879 -4.98635,23.16191 1.28907,34.03125 l 23.66992,40.99804 c 10.08349,17.46512 32.26145,23.40771 49.72656,13.32422 l 135.16406,-78.03711 c 15.91948,-9.19111 22.26077,-28.43038 15.62305,-44.99023 z"
       style="display:inline;opacity:1;fill:none;fill-opacity:1;stroke:#1e2942;stroke-width:11.33858299;stroke-miterlimit:4;stroke-dasharray:none;stroke-opacity:1"
       inkscape:connector-curvature="0" />
    <path
       id="rect4816"
       transform="scale(0.26458333)"
       d="m 514.5918,388.3457 c -3.07875,6.19633 -7.96126,11.5908 -14.42774,15.32422 L 365,481.70703 c -17.46511,10.08349 -39.64307,4.1409 -49.72656,-13.32422 l -23.66992,-40.99804 c -0.39522,-0.68454 -0.75922,-1.37817 -1.10547,-2.07618 -5.23539,10.53873 -5.24413,23.40453 1.10547,34.40235 l 23.66992,40.99804 C 325.35693,518.1741 347.53489,524.11669 365,514.0332 l 135.16406,-78.03906 c 16.78013,-9.68801 22.9146,-30.53796 14.42774,-47.64844 z"
       style="display:inline;opacity:1;fill:none;fill-opacity:1;stroke:#1e2942;stroke-width:11.33858299;stroke-miterlimit:4;stroke-dasharray:none;stroke-opacity:1"
       inkscape:connector-curvature="0" />
  </g>
</svg>
