<?xml version="1.0" encoding="UTF-8" standalone="no"?>
<svg
   xmlns:dc="http://purl.org/dc/elements/1.1/"
   xmlns:cc="http://creativecommons.org/ns#"
   xmlns:rdf="http://www.w3.org/1999/02/22-rdf-syntax-ns#"
   xmlns:svg="http://www.w3.org/2000/svg"
   xmlns="http://www.w3.org/2000/svg"
   xmlns:sodipodi="http://sodipodi.sourceforge.net/DTD/sodipodi-0.dtd"
   xmlns:inkscape="http://www.inkscape.org/namespaces/inkscape"
   id="svg8"
   version="1.1"
   viewBox="0 0 133.31744 132.80998"
   height="132.80998mm"
   width="133.31744mm"
   sodipodi:docname="minute.svg"
   inkscape:version="0.92.1 r15371">
  <sodipodi:namedview
     pagecolor="#ffffff"
     bordercolor="#666666"
     borderopacity="1"
     objecttolerance="10"
     gridtolerance="10"
     guidetolerance="10"
     inkscape:pageopacity="0"
     inkscape:pageshadow="2"
     inkscape:window-width="640"
     inkscape:window-height="480"
     id="namedview4910"
     showgrid="false"
     inkscape:zoom="0.2102413"
     inkscape:cx="249.77838"
     inkscape:cy="97.655129"
     inkscape:window-x="0"
     inkscape:window-y="0"
     inkscape:window-maximized="0"
     inkscape:current-layer="svg8" />
  <defs
     id="defs2" />
  <metadata
     id="metadata5">
    <rdf:RDF>
      <cc:Work
         rdf:about="">
        <dc:format>image/svg+xml</dc:format>
        <dc:type
           rdf:resource="http://purl.org/dc/dcmitype/StillImage" />
        <dc:title />
      </cc:Work>
    </rdf:RDF>
  </metadata>
  <g
     id="layer1"
     transform="translate(-38.912804,-41.527942)" />
  <g
     id="layer2"
     transform="translate(-38.912804,-41.527942)">
    <g
       transform="translate(132.03115,-38.486812)"
       id="g4531">
      <path
         style="fill:#faae31;fill-opacity:1;stroke-width:0.99999994"
         d="m -76.988281,302.46875 -5.919922,50.04687 A 201.41423,201.13036 0 0 1 26.695312,396.62305 L 59.996094,358.91406 A 251.93897,251.58389 0 0 0 -76.988281,302.46875 Z m -212.189449,318.85742 -47.375,17.13477 a 251.93897,251.58389 0 0 0 236.54882,165.91601 251.93897,251.58389 0 0 0 43.996098,-4.10156 l -8.064454,-49.6582 a 201.41423,201.13036 0 0 1 -35.931644,3.30664 201.41423,201.13036 0 0 1 -189.17382,-132.59766 z"
         id="path4515"
         transform="scale(0.26458333)"
         inkscape:connector-curvature="0" />
      <path
         style="fill:#1e2942;fill-opacity:1;stroke-width:0.99999994"
         d="m -124.20117,302.41797 a 251.93897,251.58389 0 0 0 -227.74219,250.375 251.93897,251.58389 0 0 0 3.89063,42.50586 l 49.96093,-6.55664 a 201.41423,201.13036 0 0 1 -3.32617,-35.94922 201.41423,201.13036 0 0 1 182.97266,-200.11914 z M 93.652344,392.20508 51.470703,420.69141 A 201.41423,201.13036 0 0 1 101.41016,552.79297 201.41423,201.13036 0 0 1 -30.59375,741.43945 l 15.623047,47.84375 A 251.93897,251.58389 0 0 0 151.93359,552.79297 251.93897,251.58389 0 0 0 93.652344,392.20508 Z"
         transform="scale(0.26458333)"
         id="path3692"
         inkscape:connector-curvature="0" />
    </g>
  </g>
  <g
     style="display:inline"
     id="layer5"
     transform="translate(-38.912804,-41.527942)">
    <rect
       ry="9.5168915"
       y="74.407936"
       x="75.485397"
       height="59.837391"
       width="57.794865"
       id="rect4671"
       style="opacity:1;fill:none;fill-opacity:1;stroke:#1e2942;stroke-width:3;stroke-miterlimit:4;stroke-dasharray:none;stroke-opacity:1" />
    <path
       id="path4673"
       d="M 85.932182,86.845238 H 105.44657"
       style="fill:none;stroke:#faae31;stroke-width:3;stroke-linecap:round;stroke-linejoin:miter;stroke-miterlimit:4;stroke-dasharray:none;stroke-opacity:1"
       inkscape:connector-curvature="0" />
    <path
       style="fill:none;stroke:#faae31;stroke-width:3;stroke-linecap:round;stroke-linejoin:miter;stroke-miterlimit:4;stroke-dasharray:none;stroke-opacity:1"
       d="M 86.617951,98.674949 H 122.14771"
       id="path4675"
       inkscape:connector-curvature="0" />
    <path
       id="path4677"
       d="M 86.617951,110.50466 H 122.14771"
       style="fill:none;stroke:#faae31;stroke-width:3;stroke-linecap:round;stroke-linejoin:miter;stroke-miterlimit:4;stroke-dasharray:none;stroke-opacity:1"
       inkscape:connector-curvature="0" />
    <path
       style="fill:none;stroke:#faae31;stroke-width:3;stroke-linecap:round;stroke-linejoin:miter;stroke-miterlimit:4;stroke-dasharray:none;stroke-opacity:1"
       d="M 86.617951,122.33434 H 122.14771"
       id="path4679"
       inkscape:connector-curvature="0" />
    <path
       id="rect4712"
       transform="scale(0.26458333)"
       d="m 502.69141,308.54688 c 0.67886,2.76938 1.04492,5.66392 1.04492,8.64843 v 154.21875 c 0,19.92702 -16.04173,35.97071 -35.96875,35.97071 h -146.5 c -3.70791,0 -7.28005,-0.55924 -10.64063,-1.5918 3.85762,15.71539 17.98743,27.30664 34.92578,27.30664 h 146.5 c 19.92703,0 35.96875,-16.04367 35.96875,-35.9707 v -154.2168 c 0,-16.2182 -10.63089,-29.84979 -25.33007,-34.36523 z"
       style="opacity:1;fill:none;fill-opacity:1;stroke:#1e2942;stroke-width:11.33858299;stroke-miterlimit:4;stroke-dasharray:none;stroke-opacity:1"
       inkscape:connector-curvature="0" />
  </g>
</svg>
