<?xml version="1.0" encoding="UTF-8" standalone="no"?>
<svg
   xmlns:dc="http://purl.org/dc/elements/1.1/"
   xmlns:cc="http://creativecommons.org/ns#"
   xmlns:rdf="http://www.w3.org/1999/02/22-rdf-syntax-ns#"
   xmlns:svg="http://www.w3.org/2000/svg"
   xmlns="http://www.w3.org/2000/svg"
   xmlns:sodipodi="http://sodipodi.sourceforge.net/DTD/sodipodi-0.dtd"
   xmlns:inkscape="http://www.inkscape.org/namespaces/inkscape"
   id="svg8"
   version="1.1"
   viewBox="0 0 133.31744 132.80998"
   height="132.80998mm"
   width="133.31744mm"
   sodipodi:docname="reminder.svg"
   inkscape:version="0.92.1 r15371">
  <sodipodi:namedview
     pagecolor="#ffffff"
     bordercolor="#666666"
     borderopacity="1"
     objecttolerance="10"
     gridtolerance="10"
     guidetolerance="10"
     inkscape:pageopacity="0"
     inkscape:pageshadow="2"
     inkscape:window-width="1920"
     inkscape:window-height="1001"
     id="namedview4882"
     showgrid="false"
     inkscape:zoom="0.2102413"
     inkscape:cx="249.77838"
     inkscape:cy="97.655129"
     inkscape:window-x="-9"
     inkscape:window-y="-9"
     inkscape:window-maximized="1"
     inkscape:current-layer="svg8" />
  <defs
     id="defs2" />
  <metadata
     id="metadata5">
    <rdf:RDF>
      <cc:Work
         rdf:about="">
        <dc:format>image/svg+xml</dc:format>
        <dc:type
           rdf:resource="http://purl.org/dc/dcmitype/StillImage" />
        <dc:title />
      </cc:Work>
    </rdf:RDF>
  </metadata>
  <g
     id="layer1"
     transform="translate(-38.912804,-41.527942)" />
  <g
     id="layer2"
     transform="translate(-38.912804,-41.527942)">
    <g
       transform="translate(132.03115,-38.486812)"
       id="g4531">
      <path
         style="fill:#faae31;fill-opacity:1;stroke-width:0.99999994"
         d="m -76.988281,302.46875 -5.919922,50.04687 A 201.41423,201.13036 0 0 1 26.695312,396.62305 L 59.996094,358.91406 A 251.93897,251.58389 0 0 0 -76.988281,302.46875 Z m -212.189449,318.85742 -47.375,17.13477 a 251.93897,251.58389 0 0 0 236.54882,165.91601 251.93897,251.58389 0 0 0 43.996098,-4.10156 l -8.064454,-49.6582 a 201.41423,201.13036 0 0 1 -35.931644,3.30664 201.41423,201.13036 0 0 1 -189.17382,-132.59766 z"
         id="path4515"
         transform="scale(0.26458333)"
         inkscape:connector-curvature="0" />
      <path
         style="fill:#1e2942;fill-opacity:1;stroke-width:0.99999994"
         d="m -124.20117,302.41797 a 251.93897,251.58389 0 0 0 -227.74219,250.375 251.93897,251.58389 0 0 0 3.89063,42.50586 l 49.96093,-6.55664 a 201.41423,201.13036 0 0 1 -3.32617,-35.94922 201.41423,201.13036 0 0 1 182.97266,-200.11914 z M 93.652344,392.20508 51.470703,420.69141 A 201.41423,201.13036 0 0 1 101.41016,552.79297 201.41423,201.13036 0 0 1 -30.59375,741.43945 l 15.623047,47.84375 A 251.93897,251.58389 0 0 0 151.93359,552.79297 251.93897,251.58389 0 0 0 93.652344,392.20508 Z"
         transform="scale(0.26458333)"
         id="path3692"
         inkscape:connector-curvature="0" />
    </g>
  </g>
  <g
     style="display:inline"
     id="layer6"
     transform="translate(-38.912804,-41.527942)">
    <path
       id="path4748"
       transform="scale(0.26458333)"
       d="m 286.78711,276.77734 a 3.7799055,3.7799055 0 0 0 -3.64649,3.24024 c -10.71045,74.17702 -8.17389,148.24971 -0.0156,222.17969 a 3.7799055,3.7799055 0 0 0 6.54102,2.14062 c 42.63491,-46.42004 85.01278,-67.28641 127.94921,-84.92187 a 3.7799055,3.7799055 0 0 0 2.34766,-3.49805 V 340.1582 a 3.7799055,3.7799055 0 0 0 -3.40234,-3.76562 c -59.43841,-5.94743 -93.36579,-31.68597 -127.31641,-58.78906 a 3.7799055,3.7799055 0 0 0 -2.45703,-0.82618 z"
       style="color:#000000;font-style:normal;font-variant:normal;font-weight:normal;font-stretch:normal;font-size:medium;line-height:normal;font-family:sans-serif;font-variant-ligatures:normal;font-variant-position:normal;font-variant-caps:normal;font-variant-numeric:normal;font-variant-alternates:normal;font-feature-settings:normal;text-indent:0;text-align:start;text-decoration:none;text-decoration-line:none;text-decoration-style:solid;text-decoration-color:#000000;letter-spacing:normal;word-spacing:normal;text-transform:none;writing-mode:lr-tb;direction:ltr;text-orientation:mixed;dominant-baseline:auto;baseline-shift:baseline;text-anchor:start;white-space:normal;shape-padding:0;clip-rule:nonzero;display:inline;overflow:visible;visibility:visible;opacity:1;isolation:auto;mix-blend-mode:normal;color-interpolation:sRGB;color-interpolation-filters:linearRGB;solid-color:#000000;solid-opacity:1;vector-effect:none;fill:#1e2942;fill-opacity:1;fill-rule:nonzero;stroke:none;stroke-width:7.55905533;stroke-linecap:butt;stroke-linejoin:round;stroke-miterlimit:4;stroke-dasharray:none;stroke-dashoffset:0;stroke-opacity:1;color-rendering:auto;image-rendering:auto;shape-rendering:auto;text-rendering:auto;enable-background:accumulate"
       inkscape:connector-curvature="0" />
    <path
       id="path4734"
       d="m 113.85682,89.866114 v 21.381566 h 2.93996 v 18.17433 c 4.78066,-2.36831 8.70994,-6.561 8.55263,-19.51068 v -4.54358 h 9.88897 V 93.875157 h -9.08716 v -3.741771 z"
       style="fill:#faae31;fill-opacity:1;stroke:none;stroke-width:2;stroke-linecap:butt;stroke-linejoin:round;stroke-miterlimit:4;stroke-dasharray:none;stroke-opacity:1"
       inkscape:connector-curvature="0" />
    <path
       id="path4738"
       d="m 113.87891,88.867188 a 1.0001,1.0001 0 0 0 -1.02149,0.998046 v 21.382816 a 1.0001,1.0001 0 0 0 1,1 h 1.93946 v 17.17383 a 1.0001,1.0001 0 0 0 1.44335,0.89648 c 2.50302,-1.23998 4.90225,-3.04911 6.57032,-6.2168 1.66806,-3.16769 2.61896,-7.62585 2.53906,-14.20312 v -3.53125 h 8.88867 a 1.0001,1.0001 0 0 0 1,-1 V 93.875 a 1.0001,1.0001 0 0 0 -1,-1 h -8.08789 v -2.742188 a 1.0001,1.0001 0 0 0 -0.97656,-1 z m 0.97851,2.019531 10.29297,0.224609 V 93.875 a 1.0001,1.0001 0 0 0 1,1 h 8.08789 v 9.49219 h -8.88867 a 1.0001,1.0001 0 0 0 -1,1 v 4.54492 a 1.0001,1.0001 0 0 0 0,0.0117 c 0.0774,6.37241 -0.85814,10.48599 -2.31055,13.24414 -1.11999,2.12688 -2.60642,3.383 -4.24218,4.41211 v -16.33203 a 1.0001,1.0001 0 0 0 -1,-1 h -1.93946 z"
       style="color:#000000;font-style:normal;font-variant:normal;font-weight:normal;font-stretch:normal;font-size:medium;line-height:normal;font-family:sans-serif;font-variant-ligatures:normal;font-variant-position:normal;font-variant-caps:normal;font-variant-numeric:normal;font-variant-alternates:normal;font-feature-settings:normal;text-indent:0;text-align:start;text-decoration:none;text-decoration-line:none;text-decoration-style:solid;text-decoration-color:#000000;letter-spacing:normal;word-spacing:normal;text-transform:none;writing-mode:lr-tb;direction:ltr;text-orientation:mixed;dominant-baseline:auto;baseline-shift:baseline;text-anchor:start;white-space:normal;shape-padding:0;clip-rule:nonzero;display:inline;overflow:visible;visibility:visible;opacity:1;isolation:auto;mix-blend-mode:normal;color-interpolation:sRGB;color-interpolation-filters:linearRGB;solid-color:#000000;solid-opacity:1;vector-effect:none;fill:#faae31;fill-opacity:1;fill-rule:nonzero;stroke:none;stroke-width:2;stroke-linecap:butt;stroke-linejoin:round;stroke-miterlimit:4;stroke-dasharray:none;stroke-dashoffset:0;stroke-opacity:1;color-rendering:auto;image-rendering:auto;shape-rendering:auto;text-rendering:auto;enable-background:accumulate"
       inkscape:connector-curvature="0" />
  </g>
</svg>
