<?xml version="1.0" encoding="UTF-8" standalone="no"?>
<svg
   xmlns:dc="http://purl.org/dc/elements/1.1/"
   xmlns:cc="http://creativecommons.org/ns#"
   xmlns:rdf="http://www.w3.org/1999/02/22-rdf-syntax-ns#"
   xmlns:svg="http://www.w3.org/2000/svg"
   xmlns="http://www.w3.org/2000/svg"
   xmlns:sodipodi="http://sodipodi.sourceforge.net/DTD/sodipodi-0.dtd"
   xmlns:inkscape="http://www.inkscape.org/namespaces/inkscape"
   id="svg8"
   version="1.1"
   viewBox="0 0 133.31744 132.80998"
   height="132.80998mm"
   width="133.31744mm"
   sodipodi:docname="annuary.svg"
   inkscape:version="0.92.1 r15371">
  <sodipodi:namedview
     pagecolor="#ffffff"
     bordercolor="#666666"
     borderopacity="1"
     objecttolerance="10"
     gridtolerance="10"
     guidetolerance="10"
     inkscape:pageopacity="0"
     inkscape:pageshadow="2"
     inkscape:window-width="640"
     inkscape:window-height="480"
     id="namedview4924"
     showgrid="false"
     inkscape:zoom="0.2102413"
     inkscape:cx="249.77838"
     inkscape:cy="97.655129"
     inkscape:window-x="0"
     inkscape:window-y="0"
     inkscape:window-maximized="0"
     inkscape:current-layer="svg8" />
  <defs
     id="defs2" />
  <metadata
     id="metadata5">
    <rdf:RDF>
      <cc:Work
         rdf:about="">
        <dc:format>image/svg+xml</dc:format>
        <dc:type
           rdf:resource="http://purl.org/dc/dcmitype/StillImage" />
        <dc:title />
      </cc:Work>
    </rdf:RDF>
  </metadata>
  <g
     id="layer1"
     transform="translate(-38.912804,-41.527942)" />
  <g
     id="layer2"
     transform="translate(-38.912804,-41.527942)">
    <g
       transform="translate(132.03115,-38.486812)"
       id="g4531">
      <path
         style="fill:#faae31;fill-opacity:1;stroke-width:0.99999994"
         d="m -76.988281,302.46875 -5.919922,50.04687 A 201.41423,201.13036 0 0 1 26.695312,396.62305 L 59.996094,358.91406 A 251.93897,251.58389 0 0 0 -76.988281,302.46875 Z m -212.189449,318.85742 -47.375,17.13477 a 251.93897,251.58389 0 0 0 236.54882,165.91601 251.93897,251.58389 0 0 0 43.996098,-4.10156 l -8.064454,-49.6582 a 201.41423,201.13036 0 0 1 -35.931644,3.30664 201.41423,201.13036 0 0 1 -189.17382,-132.59766 z"
         id="path4515"
         transform="scale(0.26458333)"
         inkscape:connector-curvature="0" />
      <path
         style="fill:#1e2942;fill-opacity:1;stroke-width:0.99999994"
         d="m -124.20117,302.41797 a 251.93897,251.58389 0 0 0 -227.74219,250.375 251.93897,251.58389 0 0 0 3.89063,42.50586 l 49.96093,-6.55664 a 201.41423,201.13036 0 0 1 -3.32617,-35.94922 201.41423,201.13036 0 0 1 182.97266,-200.11914 z M 93.652344,392.20508 51.470703,420.69141 A 201.41423,201.13036 0 0 1 101.41016,552.79297 201.41423,201.13036 0 0 1 -30.59375,741.43945 l 15.623047,47.84375 A 251.93897,251.58389 0 0 0 151.93359,552.79297 251.93897,251.58389 0 0 0 93.652344,392.20508 Z"
         transform="scale(0.26458333)"
         id="path3692"
         inkscape:connector-curvature="0" />
    </g>
  </g>
  <g
     style="display:inline"
     id="layer4"
     transform="translate(-38.912804,-41.527942)">
    <path
       id="rect4601"
       d="m 86.731138,73.161942 c -5.775965,0 -10.425718,4.649756 -10.425718,10.425721 v 3.07113 h 6.948929 c 0.444201,0 0.802018,0.357814 0.802018,0.802018 v 2.605524 c 0,0.444204 -0.357817,0.802018 -0.802018,0.802018 H 76.30542 V 101.893 h 6.948929 c 0.444201,0 0.802018,0.35782 0.802018,0.80202 v 2.60604 c 0,0.44421 -0.357817,0.80151 -0.802018,0.80151 H 76.30542 v 11.09182 h 6.948929 c 0.444201,0 0.802018,0.35782 0.802018,0.80202 v 2.60553 c 0,0.4442 -0.357817,0.80202 -0.802018,0.80202 H 76.30542 v 3.60546 c 0,5.77597 4.649753,10.42624 10.425718,10.42624 h 32.869312 c 5.77596,0 10.42624,-4.65027 10.42624,-10.42624 V 83.587663 c 0,-5.775965 -4.65028,-10.425721 -10.42624,-10.425721 z"
       style="opacity:1;fill:#1e2942;fill-opacity:1;stroke:none;stroke-width:0.27476475;stroke-opacity:1"
       inkscape:connector-curvature="0" />
    <path
       id="rect4603"
       d="m 122.72211,80.590429 v 36.921261 c 0,5.56177 -4.50809,10.03918 -10.10732,10.03918 H 77.745908 v 2.96468 c 0,5.56176 4.508091,10.03918 10.107318,10.03918 h 37.987234 c 5.59922,0 10.1068,-4.47742 10.1068,-10.03918 V 90.629609 c 0,-5.561766 -4.50758,-10.03918 -10.1068,-10.03918 z"
       style="opacity:1;fill:none;fill-opacity:1;stroke:#1e2942;stroke-width:2.90581751;stroke-miterlimit:4;stroke-dasharray:none;stroke-opacity:1"
       inkscape:connector-curvature="0" />
    <path
       style="display:inline;fill:#faae31;fill-opacity:1;stroke:none;stroke-width:0.19552027px;stroke-linecap:butt;stroke-linejoin:miter;stroke-opacity:1"
       d="m 87.823278,119.98961 c 11.323636,2.80278 22.647262,2.79204 33.970912,-0.59252 0.0434,-11.41006 -12.90652,-10.63896 -12.24533,-13.23284 14.51904,-25.786426 -24.059802,-25.014664 -8.88775,0 -0.4412,2.38531 -14.06597,2.91828 -12.837832,13.82536 z"
       id="path4578-9"
       inkscape:connector-curvature="0" />
  </g>
</svg>
