<?xml version="1.0" encoding="UTF-8" standalone="no"?>
<svg
   xmlns:dc="http://purl.org/dc/elements/1.1/"
   xmlns:cc="http://creativecommons.org/ns#"
   xmlns:rdf="http://www.w3.org/1999/02/22-rdf-syntax-ns#"
   xmlns:svg="http://www.w3.org/2000/svg"
   xmlns="http://www.w3.org/2000/svg"
   xmlns:sodipodi="http://sodipodi.sourceforge.net/DTD/sodipodi-0.dtd"
   xmlns:inkscape="http://www.inkscape.org/namespaces/inkscape"
   id="svg8"
   version="1.1"
   viewBox="0 0 133.31744 132.80998"
   height="132.80998mm"
   width="133.31744mm"
   sodipodi:docname="users.svg"
   inkscape:version="0.92.1 r15371">
  <sodipodi:namedview
     pagecolor="#ffffff"
     bordercolor="#666666"
     borderopacity="1"
     objecttolerance="10"
     gridtolerance="10"
     guidetolerance="10"
     inkscape:pageopacity="0"
     inkscape:pageshadow="2"
     inkscape:window-width="640"
     inkscape:window-height="480"
     id="namedview4938"
     showgrid="false"
     inkscape:zoom="0.2102413"
     inkscape:cx="249.77838"
     inkscape:cy="97.655129"
     inkscape:window-x="0"
     inkscape:window-y="0"
     inkscape:window-maximized="0"
     inkscape:current-layer="svg8" />
  <defs
     id="defs2" />
  <metadata
     id="metadata5">
    <rdf:RDF>
      <cc:Work
         rdf:about="">
        <dc:format>image/svg+xml</dc:format>
        <dc:type
           rdf:resource="http://purl.org/dc/dcmitype/StillImage" />
        <dc:title />
      </cc:Work>
    </rdf:RDF>
  </metadata>
  <g
     id="layer1"
     transform="translate(-38.912804,-41.527942)" />
  <g
     id="layer2"
     transform="translate(-38.912804,-41.527942)">
    <g
       transform="translate(132.03115,-38.486812)"
       id="g4531">
      <path
         style="fill:#faae31;fill-opacity:1;stroke-width:0.99999994"
         d="m -76.988281,302.46875 -5.919922,50.04687 A 201.41423,201.13036 0 0 1 26.695312,396.62305 L 59.996094,358.91406 A 251.93897,251.58389 0 0 0 -76.988281,302.46875 Z m -212.189449,318.85742 -47.375,17.13477 a 251.93897,251.58389 0 0 0 236.54882,165.91601 251.93897,251.58389 0 0 0 43.996098,-4.10156 l -8.064454,-49.6582 a 201.41423,201.13036 0 0 1 -35.931644,3.30664 201.41423,201.13036 0 0 1 -189.17382,-132.59766 z"
         id="path4515"
         transform="scale(0.26458333)"
         inkscape:connector-curvature="0" />
      <path
         style="fill:#1e2942;fill-opacity:1;stroke-width:0.99999994"
         d="m -124.20117,302.41797 a 251.93897,251.58389 0 0 0 -227.74219,250.375 251.93897,251.58389 0 0 0 3.89063,42.50586 l 49.96093,-6.55664 a 201.41423,201.13036 0 0 1 -3.32617,-35.94922 201.41423,201.13036 0 0 1 182.97266,-200.11914 z M 93.652344,392.20508 51.470703,420.69141 A 201.41423,201.13036 0 0 1 101.41016,552.79297 201.41423,201.13036 0 0 1 -30.59375,741.43945 l 15.623047,47.84375 A 251.93897,251.58389 0 0 0 151.93359,552.79297 251.93897,251.58389 0 0 0 93.652344,392.20508 Z"
         transform="scale(0.26458333)"
         id="path3692"
         inkscape:connector-curvature="0" />
    </g>
  </g>
  <g
     style="display:inline"
     id="layer3"
     transform="translate(-38.912804,-41.527942)">
    <path
       id="path4551"
       d="m 79.995407,74.685957 c -8.029133,0.130548 -15.947967,8.854559 -5.68234,25.779823 -0.597046,3.22786 -19.034014,3.94866 -17.372068,18.70842 13.276757,3.28621 26.553369,3.71192 39.830128,0.78858 -2.863604,-6.15637 -3.527597,-11.22111 -2.786911,-15.17323 -4.144053,-1.98064 -8.07983,-2.61388 -7.643977,-4.32377 9.823783,-17.447451 1.684301,-25.910368 -6.344832,-25.779823 z"
       style="fill:#1e2942;fill-opacity:1;stroke:none;stroke-width:0.26458332px;stroke-linecap:butt;stroke-linejoin:miter;stroke-opacity:1"
       inkscape:connector-curvature="0" />
    <path
       id="path4551-3"
       d="m 132.47076,75.357234 c -8.02914,0.130548 -15.94746,8.85404 -5.68183,25.779306 -0.25956,1.40326 -3.89153,2.33394 -7.7773,4.1491 0.646,4.12538 -0.14087,9.42606 -3.1688,15.92203 13.18135,2.33418 26.36248,1.77611 39.54384,-2.1637 0.0587,-15.44042 -17.4653,-14.39733 -16.57057,-17.90743 9.82379,-17.44745 1.68379,-25.909851 -6.34534,-25.779306 z"
       style="fill:#1e2942;fill-opacity:1;stroke:none;stroke-width:0.26458332px;stroke-linecap:butt;stroke-linejoin:miter;stroke-opacity:1"
       inkscape:connector-curvature="0" />
    <path
       style="fill:#faae31;fill-opacity:1;stroke:none;stroke-width:0.26458332px;stroke-linecap:butt;stroke-linejoin:miter;stroke-opacity:1"
       d="m 83.210132,140.90806 c 15.32345,3.7928 30.646908,3.77826 45.970358,-0.80181 0.0587,-15.44041 -17.46544,-14.39694 -16.57071,-17.90704 19.64756,-34.894902 -32.558378,-33.850532 -12.02713,0 -0.597048,3.22786 -19.034468,3.9491 -17.372518,18.70885 z"
       id="path4578"
       inkscape:connector-curvature="0" />
  </g>
</svg>
