<?xml version="1.0" encoding="UTF-8" standalone="no"?>
<svg
   xmlns:dc="http://purl.org/dc/elements/1.1/"
   xmlns:cc="http://creativecommons.org/ns#"
   xmlns:rdf="http://www.w3.org/1999/02/22-rdf-syntax-ns#"
   xmlns:svg="http://www.w3.org/2000/svg"
   xmlns="http://www.w3.org/2000/svg"
   width="133.31744mm"
   height="132.80998mm"
   viewBox="0 0 133.31744 132.80998"
   version="1.1"
   id="svg8">
  <defs
     id="defs2" />
  <metadata
     id="metadata5">
    <rdf:RDF>
      <cc:Work
         rdf:about="">
        <dc:format>image/svg+xml</dc:format>
        <dc:type
           rdf:resource="http://purl.org/dc/dcmitype/StillImage" />
        <dc:title></dc:title>
      </cc:Work>
    </rdf:RDF>
  </metadata>
  <g
     transform="translate(-38.912804,-41.527942)"
     id="layer1" />
  <g
     transform="translate(-38.912804,-41.527942)"
     id="layer2">
    <g
       id="g4531"
       transform="translate(132.03115,-38.486812)">
      <path
         transform="scale(0.26458333)"
         id="path4515"
         d="m -76.988281,302.46875 -5.919922,50.04687 A 201.41423,201.13036 0 0 1 26.695312,396.62305 L 59.996094,358.91406 A 251.93897,251.58389 0 0 0 -76.988281,302.46875 Z m -212.189449,318.85742 -47.375,17.13477 a 251.93897,251.58389 0 0 0 236.54882,165.91601 251.93897,251.58389 0 0 0 43.996098,-4.10156 l -8.064454,-49.6582 a 201.41423,201.13036 0 0 1 -35.931644,3.30664 201.41423,201.13036 0 0 1 -189.17382,-132.59766 z"
         style="fill:#faae31;fill-opacity:1;stroke-width:0.99999994" />
      <path
         id="path3692"
         transform="scale(0.26458333)"
         d="m -124.20117,302.41797 a 251.93897,251.58389 0 0 0 -227.74219,250.375 251.93897,251.58389 0 0 0 3.89063,42.50586 l 49.96093,-6.55664 a 201.41423,201.13036 0 0 1 -3.32617,-35.94922 201.41423,201.13036 0 0 1 182.97266,-200.11914 z M 93.652344,392.20508 51.470703,420.69141 A 201.41423,201.13036 0 0 1 101.41016,552.79297 201.41423,201.13036 0 0 1 -30.59375,741.43945 l 15.623047,47.84375 A 251.93897,251.58389 0 0 0 151.93359,552.79297 251.93897,251.58389 0 0 0 93.652344,392.20508 Z"
         style="fill:#1e2942;fill-opacity:1;stroke-width:0.99999994" />
    </g>
  </g>
  <path
     id="rect4601"
     d="m 42.598914,32.814408 c -5.775968,0 -10.426237,4.649756 -10.426237,10.425721 v 32.869312 c 0,5.775959 4.650269,10.426236 10.426237,10.426236 h 25.061002 a 22.967155,22.967155 0 0 1 -0.881599,-6.222875 22.967155,22.967155 0 0 1 22.967074,-22.96759 22.967155,22.967155 0 0 1 4.701005,0.513146 V 43.240129 c 0,-5.775965 -4.649755,-10.425721 -10.425721,-10.425721 h -3.07113 v 6.948929 c 0,0.444201 -0.357814,0.802019 -0.802018,0.802019 H 76.04752 c -0.444206,0 -0.802018,-0.357818 -0.802018,-0.802019 v -6.948929 h -8.8222 v 6.948929 c 0,0.444201 -0.35782,0.802019 -0.802019,0.802019 h -3.943429 c -0.444209,0 -0.801502,-0.357818 -0.801502,-0.802019 v -6.948929 h -8.731766 v 6.948929 c 0,0.444201 -0.357817,0.802019 -0.802018,0.802019 h -4.336169 c -0.444201,0 -0.802018,-0.357818 -0.802018,-0.802019 v -6.948929 z"
     style="opacity:1;fill:none;fill-opacity:1;stroke:#1e2942;stroke-width:2.64583325;stroke-miterlimit:4;stroke-dasharray:none;stroke-opacity:1" />
  <path
     id="rect4493-5"
     d="m 56.492124,45.406921 c -2.382229,0 -4.299995,1.917769 -4.299995,4.299998 v 0.632518 c 0,2.382229 1.917766,4.299995 4.299995,4.299995 2.382229,0 4.299995,-1.917766 4.299995,-4.299995 v -0.632518 c 0,-2.382229 -1.917766,-4.299998 -4.299995,-4.299998 z m 13.634826,0 c -2.382227,0 -4.299996,1.917769 -4.299996,4.299998 v 0.632518 c 0,2.382229 1.917769,4.299995 4.299996,4.299995 2.382228,0 4.299997,-1.917766 4.299997,-4.299995 v -0.632518 c 0,-2.382229 -1.917769,-4.299998 -4.299997,-4.299998 z m 13.635344,0 c -2.382229,0 -4.300514,1.917769 -4.300514,4.299998 v 0.632518 c 0,2.382229 1.918285,4.299995 4.300514,4.299995 2.382229,0 4.299995,-1.917766 4.299995,-4.299995 v -0.632518 c 0,-2.382229 -1.917766,-4.299998 -4.299995,-4.299998 z M 42.857298,57.309038 c -2.382229,0 -4.299997,1.917766 -4.299997,4.299995 v 0.632521 c 0,2.382226 1.917768,4.299995 4.299997,4.299995 2.382226,0 4.299995,-1.917769 4.299995,-4.299995 v -0.632521 c 0,-2.382229 -1.917769,-4.299995 -4.299995,-4.299995 z m 13.634826,0 c -2.382229,0 -4.299995,1.917766 -4.299995,4.299995 v 0.632521 c 0,2.382226 1.917766,4.299995 4.299995,4.299995 2.382229,0 4.299995,-1.917769 4.299995,-4.299995 v -0.632521 c 0,-2.382229 -1.917766,-4.299995 -4.299995,-4.299995 z m 13.634826,0 c -2.382227,0 -4.299996,1.917766 -4.299996,4.299995 v 0.632521 c 0,2.382226 1.917769,4.299995 4.299996,4.299995 0.508968,0 0.99455,-0.09231 1.44694,-0.253214 a 22.967155,22.967155 0 0 1 2.697511,-2.910417 c 0.09849,-0.36227 0.155546,-0.742055 0.155546,-1.136364 v -0.632521 c 0,-2.382229 -1.917769,-4.299995 -4.299997,-4.299995 z m 13.635344,0 c -1.637369,0 -3.055411,0.90578 -3.782198,2.245857 a 22.967155,22.967155 0 0 1 5.646682,-1.81901 C 85.062721,57.464978 84.432089,57.309038 83.762294,57.309038 Z M 42.857298,69.211153 c -2.382229,0 -4.299997,1.917768 -4.299997,4.299997 v 0.632518 c 0,2.382229 1.917768,4.299995 4.299997,4.299995 2.382226,0 4.299995,-1.917766 4.299995,-4.299995 V 73.51115 c 0,-2.382229 -1.917769,-4.299997 -4.299995,-4.299997 z m 13.634826,0 c -2.382229,0 -4.299995,1.917768 -4.299995,4.299997 v 0.632518 c 0,2.382229 1.917766,4.299995 4.299995,4.299995 2.382229,0 4.299995,-1.917766 4.299995,-4.299995 V 73.51115 c 0,-2.382229 -1.917766,-4.299997 -4.299995,-4.299997 z m 13.160954,0.02739 c -2.157338,0.234728 -3.826124,2.050786 -3.826124,4.272608 v 0.632518 c 0,1.159807 0.456952,2.207237 1.198378,2.979148 a 22.967155,22.967155 0 0 1 2.627746,-7.884274 z"
     style="opacity:1;fill:#1e2942;fill-opacity:1;stroke:none;stroke-width:3.00827599;stroke-linecap:round;stroke-linejoin:round;stroke-miterlimit:4;stroke-dasharray:none;stroke-opacity:1" />
  <path
     id="path4726"
     d="M 91.947901,60.49144 A 20.76483,20.76483 0 0 0 71.182761,81.256582 20.76483,20.76483 0 0 0 91.947901,102.0212 20.76483,20.76483 0 0 0 112.71252,81.256582 20.76483,20.76483 0 0 0 91.947901,60.49144 Z m 0,3.578076 c 1.035589,0 1.869138,0.833544 1.869138,1.869136 v 0.274921 c 0,1.035592 -0.833549,1.869651 -1.869138,1.869651 -1.035601,0 -1.869652,-0.834059 -1.869652,-1.869651 v -0.274921 c 0,-1.035592 0.834051,-1.869136 1.869652,-1.869136 z M 78.73734,71.881961 c 0.317648,-0.01209 0.642728,0.06764 0.93431,0.248563 l 9.271267,5.752621 c 0.772332,-0.758881 1.831657,-1.226799 3.004984,-1.226799 0.953201,0 1.828659,0.312076 2.538865,0.834572 l 5.790864,-4.998659 c 0.30306,-0.261596 0.67261,-0.394261 1.04231,-0.40256 0.47532,-0.01072 0.95092,0.183964 1.28725,0.573608 0.59794,0.692698 0.52165,1.731645 -0.17104,2.329574 l -6.243547,5.389335 c 0.02377,0.183407 0.04031,0.369054 0.04031,0.559139 v 0.629936 c 0,2.373871 -1.911141,4.285009 -4.285011,4.285009 -2.373871,0 -4.285009,-1.911138 -4.285009,-4.285009 v -0.594278 l -9.733256,-6.039427 c -0.777547,-0.482462 -1.015246,-1.496732 -0.532784,-2.274279 0.30154,-0.485965 0.811072,-0.761201 1.340487,-0.781346 z m -2.107883,7.505483 h 0.274918 c 1.0356,0 1.869136,0.834054 1.869136,1.869654 0,1.03559 -0.833536,1.869136 -1.869136,1.869136 h -0.274918 c -1.0356,0 -1.869136,-0.833546 -1.869136,-1.869136 0,-1.0356 0.833536,-1.869654 1.869136,-1.869654 z m 30.360933,0 h 0.27492 c 1.03559,0 1.86913,0.834054 1.86913,1.869654 0,1.03559 -0.83354,1.869136 -1.86913,1.869136 h -0.27492 c -1.03559,0 -1.86965,-0.833546 -1.86965,-1.869136 0,-1.0356 0.83406,-1.869654 1.86965,-1.869654 z M 91.947901,94.430453 c 1.035589,0 1.869138,0.833544 1.869138,1.869136 v 0.274921 c 0,1.035592 -0.833549,1.86914 -1.869138,1.86914 -1.035601,0 -1.869652,-0.833548 -1.869652,-1.86914 v -0.274921 c 0,-1.035592 0.834051,-1.869136 1.869652,-1.869136 z"
     style="opacity:1;fill:#faae31;fill-opacity:1;stroke:none;stroke-width:1.57319808;stroke-linecap:round;stroke-linejoin:round;stroke-miterlimit:4;stroke-dasharray:none;stroke-opacity:1" />
</svg>
