<?xml version="1.0" encoding="UTF-8" standalone="no"?>
<svg
   xmlns:dc="http://purl.org/dc/elements/1.1/"
   xmlns:cc="http://creativecommons.org/ns#"
   xmlns:rdf="http://www.w3.org/1999/02/22-rdf-syntax-ns#"
   xmlns:svg="http://www.w3.org/2000/svg"
   xmlns="http://www.w3.org/2000/svg"
   id="svg8"
   version="1.1"
   viewBox="0 0 229.52629 115.92178"
   height="115.92178mm"
   width="229.52629mm">
  <defs
     id="defs2" />
  <metadata
     id="metadata5">
    <rdf:RDF>
      <cc:Work
         rdf:about="">
        <dc:format>image/svg+xml</dc:format>
        <dc:type
           rdf:resource="http://purl.org/dc/dcmitype/StillImage" />
        <dc:title></dc:title>
      </cc:Work>
    </rdf:RDF>
  </metadata>
  <g
     transform="translate(7.0869796,-65.890224)"
     id="layer1">
    <g
       transform="translate(0.75595238,0.37797619)"
       id="g4507">
      <path
         style="fill:#1c2942;fill-opacity:1;stroke-width:0.08466666"
         d="m -7.798407,132.14221 c 0,-40.965138 0.016168,-47.243088 0.1223197,-47.497138 0.1616193,-0.38681 0.6006583,-0.60816 0.9586984,-0.48335 0.2892688,0.10084 13.7365622,9.14594 14.1061906,9.4883 0.133948,0.12407 0.333601,0.41607 0.443673,0.64891 l 0.200131,0.42333 8.46e-4,42.312168 8.47e-4,42.31216 H 0.11796527 -7.798368 v -47.20438 z m 108.562817,29.78421 0.0222,-16.82749 0.25183,-0.45468 c 0.13851,-0.25008 0.36727,-0.54274 0.50836,-0.65035 0.43424,-0.33122 14.43023,-7.15 14.67512,-7.14966 0.3382,8.5e-4 0.77199,0.30246 0.91045,0.63382 0.10495,0.2512 0.1219,3.14083 0.1219,20.78381 v 20.49205 h -8.25602 -8.25603 z M 38.692913,151.54244 c -0.111291,-0.0617 -0.252816,-0.20321 -0.3145,-0.3145 -0.0925,-0.1669 -0.112678,-5.64 -0.115152,-31.24155 -0.002,-20.488238 0.02654,-31.410328 0.08391,-32.130998 0.664812,-8.35181 4.893575,-14.63534 12.966745,-19.26732 2.871317,-1.64742 5.125389,-2.46814 8.028347,-2.92319 0.914425,-0.14334 2.014313,-0.15262 18.076333,-0.15262 18.304121,0 17.855201,-0.009 20.239811,0.42734 7.190083,1.31712 12.917333,5.9631 17.164143,13.92366 0.79632,1.49268 1.35574,3.15892 1.7908,5.334 0.5815,2.90713 0.65636,4.76452 0.62441,15.493998 l -0.0258,8.67833 -0.24597,0.53268 c -0.3683,0.79759 -0.88602,1.21864 -2.30324,1.87318 -0.64687,0.29874 -2.62392,1.21631 -4.39346,2.03902 -4.65444,2.16397 -7.32762,3.36392 -7.63408,3.42679 -0.67489,0.13847 -1.59792,-0.46965 -1.79603,-1.18328 -0.067,-0.24127 -0.0945,-4.25023 -0.0959,-13.96972 -0.002,-14.729028 0.0157,-14.125818 -0.45024,-15.279348 -0.484703,-1.19996 -1.335403,-2.25281 -2.551763,-3.15809 -0.819262,-0.60975 -2.634812,-1.51581 -3.558661,-1.77598 l -0.677333,-0.19075 -15.324667,-0.0257 c -10.643269,-0.0179 -15.569683,0.002 -16.126739,0.0663 -4.068911,0.46681 -6.4008,2.7888 -7.431634,7.40012 l -0.229252,1.02552 -0.04419,24.764998 -0.04419,24.765 -0.179019,0.381 c -0.31518,0.67078 -0.721047,0.97853 -2.285094,1.73265 -4.302929,2.07471 -7.54595,4.60976 -11.67522,9.12644 -0.60814,0.66519 -0.707605,0.74054 -0.973667,0.73756 -0.162983,-0.002 -0.387389,-0.0538 -0.49868,-0.11547 z M 156.87826,103.53635 c -0.31502,-0.11782 -11.63099,-5.352878 -12.21861,-5.652668 -0.53537,-0.27312 -1.29678,-1.05095 -1.57626,-1.61025 -0.41281,-0.8261 -0.45502,-1.22266 -0.40387,-3.79484 0.0582,-2.92495 0.30216,-4.66839 0.95623,-6.83275 1.95113,-6.45636 6.65882,-11.52915 14.13151,-15.22748 1.09238,-0.54063 1.69985,-0.78323 2.52004,-1.00643 2.08882,-0.56842 4.64079,-0.9084 8.01177,-1.06733 2.69705,-0.12716 27.43667,-0.0606 28.71119,0.0773 1.97799,0.21393 3.07392,0.37356 4.445,0.64743 7.00482,1.3992 12.17939,4.64811 15.28311,9.59567 0.30226,0.48183 0.78956,1.23529 1.08288,1.67436 2.1871,3.2738 3.32687,6.85743 3.73969,11.75827 0.0471,0.5588 0.086,2.77813 0.0864,4.93184 l 8.5e-4,3.915828 h -8.21267 -8.21267 v -4.254498 -4.2545 l -0.21168,-0.79014 c -0.11642,-0.43457 -0.36329,-1.17753 -0.54859,-1.65099 -1.09221,-2.79089 -2.77523,-4.4439 -5.16597,-5.0739 l -0.71967,-0.18964 h -16.21366 c -16.21286,0 -16.21371,0 -17.01885,0.17959 -2.84334,0.63419 -4.6908,2.32318 -5.9355,5.42638 -0.48205,1.20181 -0.5138,1.60561 -0.55107,7.00936 -0.0186,2.700868 -0.054,5.033378 -0.0786,5.183348 -0.0594,0.36207 -0.41703,0.77357 -0.83882,0.96518 -0.40221,0.1827 -0.65646,0.19249 -1.06184,0.0409 z"
         id="path4496" />
      <path
         style="fill:#faaf31;fill-opacity:1;stroke:none;stroke-width:0.26458332px;stroke-linecap:butt;stroke-linejoin:miter;stroke-opacity:1"
         d="m -7.842932,66.009553 v 12.709303 c 0,0.726948 0.6614583,1.322916 0.6614583,1.322916 l 13.6725502,9.46867 c 0.5025028,0.347991 1.5880168,-0.306025 1.5880168,-0.917255 V 66.009553 Z M 144.29093,101.80065 c -0.70131,-0.032 -1.60507,0.79771 -1.60507,1.48673 v 13.70149 c 0,0.90854 0.69616,1.86837 1.51205,2.26808 l 51.49919,25.22947 c 3.76554,1.84475 9.35498,5.25663 9.35498,8.41034 v 5.29166 c 0,3.85178 -4.60521,7.27604 -8.97671,7.27604 h -28.15952 c -6.44835,0 -9.35499,-5.78855 -9.35499,-9.82731 v -6.52052 h -15.875 v 10.15854 c 0,8.52123 10.23593,22.15886 23.24561,22.15886 h 32.60059 c 10.42116,0 23.21693,-9.91431 23.15105,-27.1198 -0.039,-10.18918 -5.2595,-17.89165 -15.21355,-22.67871 L 144.57567,101.8699 c -0.0887,-0.0427 -0.18455,-0.0647 -0.28474,-0.0692 z m -28.84371,13.6958 c -0.12138,-0.002 -0.24019,0.0214 -0.35347,0.0749 l -61.137872,28.91504 c -7.729262,3.65556 -15.838202,11.67209 -15.78043,20.22202 l 0.09457,13.98519 H 54.33415 l 0.09457,-12.28452 c 0.02839,-3.6911 3.76609,-5.73614 5.386237,-6.52003 l 55.467923,-26.83607 c 1.25592,-0.60764 1.98438,-2.29038 1.98438,-3.68557 V 117.6503 c 0,-0.8772 -0.97039,-2.13925 -1.82004,-2.15388 z"
         id="path4498" />
    </g>
  </g>
</svg>
